{
  "accessors": [
    {
      "bufferView": 1,
      "componentType": 5126,
      "count": 483,
      "max": [
        0.9999600052833557,
        0.9999600052833557,
        0.699999988079071
      ],
      "min": [
        -0.9999600052833557,
        -0.9999600052833557,
        -6.368549823760986
      ],
      "type": "VEC3"
    },
    {
      "bufferView": 1,
      "byteOffset": 5796,
      "componentType": 5126,
      "count": 483,
      "max": [
        1.0,
        0.9824512004852295,
        1.0
      ],
      "min": [
        -1.0,
        -0.9999620318412781,
        -1.0
      ],
      "type": "VEC3"
    },
    {
      "bufferView": 0,
      "componentType": 5125,
      "count": 912,
      "type": "SCALAR"
    },
    {
      "bufferView": 1,
      "byteOffset": 11592,
      "componentType": 5126,
      "count": 16,
      "max": [
        0.8999699950218201,
        0.8999699950218201,
        0.5
      ],
      "min": [
        -0.8999699950218201,
        -0.8999699950218201,
        0.5
      ],
      "type": "VEC3"
    },
    {
      "bufferView": 1,
      "byteOffset": 11784,
      "componentType": 5126,
      "count": 16,
      "max": [
        -0.0,
        0.0,
        1.0
      ],
      "min": [
        -0.0,
        0.0,
        1.0
      ],
      "type": "VEC3"
    },
    {
      "bufferView": 0,
      "byteOffset": 3648,
      "componentType": 5125,
      "count": 42,
      "type": "SCALAR"
    },
    {
      "bufferView": 1,
      "byteOffset": 11976,
      "componentType": 5126,
      "count": 40,
      "max": [
        0.17961999773979187,
        -0.48965001106262207,
        -2.0793700218200684
      ],
      "min": [
        -0.1899300068616867,
        -0.692870020866394,
        -2.516119956970215
      ],
      "type": "VEC3"
    },
    {
      "bufferView": 1,
      "byteOffset": 12456,
      "componentType": 5126,
      "count": 40,
      "max": [
        1.0,
        -0.0,
        1.0
      ],
      "min": [
        -1.0,
        -0.9999619126319885,
        -1.0
      ],
      "type": "VEC3"
    },
    {
      "bufferView": 0,
      "byteOffset": 3816,
      "componentType": 5125,
      "count": 66,
      "type": "SCALAR"
    }
  ],
  "asset": {
    "extras": {
      "author": "Jiří Kuba (https://sketchfab.com/kuba.jirka)",
      "license": "CC-BY-4.0 (http://creativecommons.org/licenses/by/4.0/)",
      "source": "https://sketchfab.com/3d-models/flashlight-3f7070d1c8ce4840b31602636c4441e5",
      "title": "Flashlight"
    },
    "generator": "Sketchfab-12.68.0",
    "version": "2.0"
  },
  "bufferViews": [
    {
      "buffer": 0,
      "byteLength": 4080,
      "name": "floatBufferViews",
      "target": 34963
    },
    {
      "buffer": 0,
      "byteLength": 12936,
      "byteOffset": 4080,
      "byteStride": 12,
      "name": "floatBufferViews",
      "target": 34962
    }
  ],
  "buffers": [
    {
      "byteLength": 17016,
      "uri": "scene.bin"
    }
  ],
  "materials": [
    {
      "doubleSided": true,
      "name": "FlashlightMaterial",
      "pbrMetallicRoughness": {
        "baseColorFactor": [
          0.11068861186504364,
          0.11068861186504364,
          0.11068861186504364,
          1.0
        ],
        "metallicFactor": 0.0,
        "roughnessFactor": 0.6
      }
    },
    {
      "doubleSided": true,
      "emissiveFactor": [
        1.0,
        1.0,
        0.0
      ],
      "name": "FlashlightLightMaterial",
      "pbrMetallicRoughness": {
        "baseColorFactor": [
          1.0,
          1.0,
          0.0,
          1.0
        ],
        "metallicFactor": 0.0,
        "roughnessFactor": 0.6
      }
    },
    {
      "doubleSided": true,
      "name": "FlashlightButtonMaterial",
      "pbrMetallicRoughness": {
        "baseColorFactor": [
          1.0,
          0.009789354167878628,
          0.0,
          1.0
        ],
        "metallicFactor": 0.0,
        "roughnessFactor": 0.6
      }
    }
  ],
  "meshes": [
    {
      "name": "Flashlight_0",
      "primitives": [
        {
          "attributes": {
            "NORMAL": 1,
            "POSITION": 0
          },
          "indices": 2,
          "material": 0,
          "mode": 4
        }
      ]
    },
    {
      "name": "Flashlight_1",
      "primitives": [
        {
          "attributes": {
            "NORMAL": 4,
            "POSITION": 3
          },
          "indices": 5,
          "material": 1,
          "mode": 4
        }
      ]
    },
    {
      "name": "Flashlight_2",
      "primitives": [
        {
          "attributes": {
            "NORMAL": 7,
            "POSITION": 6
          },
          "indices": 8,
          "material": 2,
          "mode": 4
        }
      ]
    }
  ],
  "nodes": [
    {
      "children": [
        1
      ],
      "matrix": [
        262.6955261230469,
        0.0,
        0.0,
        0.0,
        0.0,
        5.833012431356518e-14,
        -262.6955261230469,
        0.0,
        0.0,
        262.6955261230469,
        5.833012431356518e-14,
        0.0,
        0.0,
        0.0,
        0.0,
        1.0
      ],
      "name": "Sketchfab_model"
    },
    {
      "children": [
        2
      ],
      "name": "Root"
    },
    {
      "children": [
        3,
        4,
        5
      ],
      "name": "Flashlight"
    },
    {
      "mesh": 0,
      "name": "Flashlight_0"
    },
    {
      "mesh": 1,
      "name": "Flashlight_1"
    },
    {
      "mesh": 2,
      "name": "Flashlight_2"
    }
  ],
  "scene": 0,
  "scenes": [
    {
      "name": "Sketchfab_Scene",
      "nodes": [
        0
      ]
    }
  ]
}
