{
  "accessors": [
    {
      "bufferView": 2,
      "componentType": 5126,
      "count": 725,
      "max": [
        5.045132160186768,
        2.065070867538452,
        2.063316583633423
      ],
      "min": [
        -5.045131683349609,
        -2.1719133853912354,
        -2.063316583633423
      ],
      "type": "VEC3"
    },
    {
      "bufferView": 2,
      "byteOffset": 8700,
      "componentType": 5126,
      "count": 725,
      "max": [
        1.0,
        1.0,
        1.0
      ],
      "min": [
        -1.0,
        -1.0,
        -1.0
      ],
      "type": "VEC3"
    },
    {
      "bufferView": 3,
      "componentType": 5126,
      "count": 725,
      "max": [
        1.0,
        1.0,
        1.0,
        1.0
      ],
      "min": [
        -1.0,
        -1.0,
        -1.0,
        1.0
      ],
      "type": "VEC4"
    },
    {
      "bufferView": 1,
      "componentType": 5126,
      "count": 725,
      "max": [
        0.998046875,
        0.9934446811676025
      ],
      "min": [
        0.001953125,
        0.001953125
      ],
      "type": "VEC2"
    },
    {
      "bufferView": 0,
      "componentType": 5125,
      "count": 1242,
      "type": "SCALAR"
    },
    {
      "bufferView": 2,
      "byteOffset": 17400,
      "componentType": 5126,
      "count": 569,
      "max": [
        2.0451321601867676,
        2.065070867538452,
        2.063316583633423
      ],
      "min": [
        -2.0451321601867676,
        -2.1704370975494385,
        -2.063316583633423
      ],
      "type": "VEC3"
    },
    {
      "bufferView": 2,
      "byteOffset": 24228,
      "componentType": 5126,
      "count": 569,
      "max": [
        1.0,
        1.0,
        1.0
      ],
      "min": [
        -1.0,
        -1.0,
        -1.0
      ],
      "type": "VEC3"
    },
    {
      "bufferView": 3,
      "byteOffset": 11600,
      "componentType": 5126,
      "count": 569,
      "max": [
        1.0,
        1.0,
        1.0,
        1.0
      ],
      "min": [
        -1.0,
        -1.0,
        -1.0,
        1.0
      ],
      "type": "VEC4"
    },
    {
      "bufferView": 1,
      "byteOffset": 5800,
      "componentType": 5126,
      "count": 569,
      "max": [
        0.9828535914421082,
        1.0000883340835571
      ],
      "min": [
        -8.995630520544804e-18,
        0.001953125
      ],
      "type": "VEC2"
    },
    {
      "bufferView": 0,
      "byteOffset": 4968,
      "componentType": 5125,
      "count": 1242,
      "type": "SCALAR"
    },
    {
      "bufferView": 2,
      "byteOffset": 31056,
      "componentType": 5126,
      "count": 671,
      "max": [
        2.0451321601867676,
        2.065070867538452,
        6.159936428070068
      ],
      "min": [
        -2.0451321601867676,
        -2.160841941833496,
        -2.063316583633423
      ],
      "type": "VEC3"
    },
    {
      "bufferView": 2,
      "byteOffset": 39108,
      "componentType": 5126,
      "count": 671,
      "max": [
        1.0,
        1.0,
        1.0
      ],
      "min": [
        -1.0,
        -1.0,
        -1.0
      ],
      "type": "VEC3"
    },
    {
      "bufferView": 3,
      "byteOffset": 20704,
      "componentType": 5126,
      "count": 671,
      "max": [
        1.0,
        1.0,
        1.0,
        1.0
      ],
      "min": [
        -1.0,
        -1.0,
        -1.0,
        1.0
      ],
      "type": "VEC4"
    },
    {
      "bufferView": 1,
      "byteOffset": 10352,
      "componentType": 5126,
      "count": 671,
      "max": [
        0.9951346516609192,
        0.998046875
      ],
      "min": [
        0.001953125,
        0.001953125
      ],
      "type": "VEC2"
    },
    {
      "bufferView": 0,
      "byteOffset": 9936,
      "componentType": 5125,
      "count": 1242,
      "type": "SCALAR"
    }
  ],
  "asset": {
    "extras": {
      "author": "Pedro Silva (https://sketchfab.com/pxdrosilva)",
      "license": "CC-BY-4.0 (http://creativecommons.org/licenses/by/4.0/)",
      "source": "https://sketchfab.com/3d-models/wood-crate-d331f79189704cd49ba013752f2b8d80",
      "title": "Wood Crate"
    },
    "generator": "Sketchfab-12.66.0",
    "version": "2.0"
  },
  "bufferViews": [
    {
      "buffer": 0,
      "byteLength": 14904,
      "name": "floatBufferViews",
      "target": 34963
    },
    {
      "buffer": 0,
      "byteLength": 15720,
      "byteOffset": 14904,
      "byteStride": 8,
      "name": "floatBufferViews",
      "target": 34962
    },
    {
      "buffer": 0,
      "byteLength": 47160,
      "byteOffset": 30624,
      "byteStride": 12,
      "name": "floatBufferViews",
      "target": 34962
    },
    {
      "buffer": 0,
      "byteLength": 31440,
      "byteOffset": 77784,
      "byteStride": 16,
      "name": "floatBufferViews",
      "target": 34962
    }
  ],
  "buffers": [
    {
      "byteLength": 109224,
      "uri": "scene.bin"
    }
  ],
  "images": [
    {
      "uri": "textures/Wood_Crate_C_baseColor.png"
    },
    {
      "uri": "textures/Wood_Crate_C_metallicRoughness.png"
    },
    {
      "uri": "textures/Wood_Crate_C_normal.png"
    },
    {
      "uri": "textures/Wood_Crate_A_baseColor.png"
    },
    {
      "uri": "textures/Wood_Crate_A_metallicRoughness.png"
    },
    {
      "uri": "textures/Wood_Crate_A_normal.png"
    },
    {
      "uri": "textures/Wood_Crate_B_baseColor.png"
    },
    {
      "uri": "textures/Wood_Crate_B_metallicRoughness.png"
    },
    {
      "uri": "textures/Wood_Crate_B_normal.png"
    }
  ],
  "materials": [
    {
      "doubleSided": true,
      "name": "Wood_Crate_C",
      "normalTexture": {
        "index": 2
      },
      "pbrMetallicRoughness": {
        "baseColorTexture": {
          "index": 0
        },
        "metallicRoughnessTexture": {
          "index": 1
        }
      }
    },
    {
      "doubleSided": true,
      "name": "Wood_Crate_A",
      "normalTexture": {
        "index": 5
      },
      "pbrMetallicRoughness": {
        "baseColorTexture": {
          "index": 3
        },
        "metallicRoughnessTexture": {
          "index": 4
        }
      }
    },
    {
      "doubleSided": true,
      "name": "Wood_Crate_B",
      "normalTexture": {
        "index": 8
      },
      "pbrMetallicRoughness": {
        "baseColorTexture": {
          "index": 6
        },
        "metallicRoughnessTexture": {
          "index": 7
        }
      }
    }
  ],
  "meshes": [
    {
      "name": "Wood_Crate_C_Wood_Crate_C_0",
      "primitives": [
        {
          "attributes": {
            "NORMAL": 1,
            "POSITION": 0,
            "TANGENT": 2,
            "TEXCOORD_0": 3
          },
          "indices": 4,
          "material": 0,
          "mode": 4
        }
      ]
    },
    {
      "name": "Wood_Crate_A_Wood_Crate_A_0",
      "primitives": [
        {
          "attributes": {
            "NORMAL": 6,
            "POSITION": 5,
            "TANGENT": 7,
            "TEXCOORD_0": 8
          },
          "indices": 9,
          "material": 1,
          "mode": 4
        }
      ]
    },
    {
      "name": "Wood_Crate_B_Wood_Crate_B_0",
      "primitives": [
        {
          "attributes": {
            "NORMAL": 11,
            "POSITION": 10,
            "TANGENT": 12,
            "TEXCOORD_0": 13
          },
          "indices": 14,
          "material": 2,
          "mode": 4
        }
      ]
    }
  ],
  "nodes": [
    {
      "children": [
        1
      ],
      "matrix": [
        1.0,
        0.0,
        0.0,
        0.0,
        0.0,
        2.220446049250313e-16,
        -1.0,
        0.0,
        0.0,
        1.0,
        2.220446049250313e-16,
        0.0,
        0.0,
        0.0,
        0.0,
        1.0
      ],
      "name": "Sketchfab_model"
    },
    {
      "children": [
        2
      ],
      "matrix": [
        1.0,
        0.0,
        0.0,
        0.0,
        0.0,
        0.0,
        1.0,
        0.0,
        0.0,
        -1.0,
        0.0,
        0.0,
        0.0,
        0.0,
        0.0,
        1.0
      ],
      "name": "df5279998b8342ff8e26ec1aab6626bd.fbx"
    },
    {
      "children": [
        3,
        5,
        7
      ],
      "name": "RootNode"
    },
    {
      "children": [
        4
      ],
      "matrix": [
        100.0,
        0.0,
        0.0,
        0.0,
        0.0,
        -1.629206793918314e-05,
        -99.99999999999868,
        0.0,
        0.0,
        99.99999999999868,
        -1.629206793918314e-05,
        0.0,
        0.0,
        0.0,
        256.0010986328125,
        1.0
      ],
      "name": "Wood_Crate_C"
    },
    {
      "mesh": 0,
      "name": "Wood_Crate_C_Wood_Crate_C_0"
    },
    {
      "children": [
        6
      ],
      "matrix": [
        -99.9999999999985,
        -8.74227798045639e-06,
        -1.5099581673894083e-05,
        0.0,
        -1.509957997170937e-05,
        -1.9470720213909942e-05,
        99.99999999999696,
        0.0,
        -8.742280920453426e-06,
        99.99999999999771,
        1.9470718892744543e-05,
        0.0,
        241.4136962890625,
        0.0,
        -212.41946411132813,
        1.0
      ],
      "name": "Wood_Crate_A"
    },
    {
      "mesh": 1,
      "name": "Wood_Crate_A_Wood_Crate_A_0"
    },
    {
      "children": [
        8
      ],
      "matrix": [
        -99.9999999999985,
        -8.74227798045639e-06,
        -1.5099581673894083e-05,
        0.0,
        -1.509957997170937e-05,
        -1.9470720213909942e-05,
        99.99999999999696,
        0.0,
        -8.742280920453426e-06,
        99.99999999999771,
        1.9470718892744543e-05,
        0.0,
        -249.0874481201172,
        0.0,
        -225.22019958496094,
        1.0
      ],
      "name": "Wood_Crate_B"
    },
    {
      "mesh": 2,
      "name": "Wood_Crate_B_Wood_Crate_B_0"
    }
  ],
  "samplers": [
    {
      "magFilter": 9729,
      "minFilter": 9987,
      "wrapS": 10497,
      "wrapT": 10497
    }
  ],
  "scene": 0,
  "scenes": [
    {
      "name": "Sketchfab_Scene",
      "nodes": [
        0
      ]
    }
  ],
  "textures": [
    {
      "sampler": 0,
      "source": 0
    },
    {
      "sampler": 0,
      "source": 1
    },
    {
      "sampler": 0,
      "source": 2
    },
    {
      "sampler": 0,
      "source": 3
    },
    {
      "sampler": 0,
      "source": 4
    },
    {
      "sampler": 0,
      "source": 5
    },
    {
      "sampler": 0,
      "source": 6
    },
    {
      "sampler": 0,
      "source": 7
    },
    {
      "sampler": 0,
      "source": 8
    }
  ]
}
